<?xml version="1.0" encoding="UTF-8" standalone="no"?>
<svg
   xmlns:dc="http://purl.org/dc/elements/1.1/"
   xmlns:cc="http://creativecommons.org/ns#"
   xmlns:rdf="http://www.w3.org/1999/02/22-rdf-syntax-ns#"
   xmlns:svg="http://www.w3.org/2000/svg"
   xmlns="http://www.w3.org/2000/svg"
   xmlns:sodipodi="http://sodipodi.sourceforge.net/DTD/sodipodi-0.dtd"
   xmlns:inkscape="http://www.inkscape.org/namespaces/inkscape"
   inkscape:export-ydpi="45"
   inkscape:export-xdpi="45"
   inkscape:export-filename="C:\Hemarbete\Bilder\hgf_hopprep.png"
   sodipodi:docname="icon.svg"
   inkscape:version="1.0 (4035a4fb49, 2020-05-01)"
   version="1.1"
   id="svg2"
   viewBox="0 0 1919.9999 1920.0001"
   height="2048"
   width="2048">
  <defs
     id="defs4" />
  <sodipodi:namedview
     inkscape:document-rotation="0"
     units="px"
     inkscape:window-maximized="1"
     inkscape:window-y="22"
     inkscape:window-x="-8"
     inkscape:window-height="1027"
     inkscape:window-width="1920"
     inkscape:guide-bbox="true"
     showguides="true"
     fit-margin-bottom="10"
     fit-margin-right="10"
     fit-margin-left="10"
     fit-margin-top="10"
     showgrid="false"
     inkscape:current-layer="layer1"
     inkscape:document-units="px"
     inkscape:cy="1109.9494"
     inkscape:cx="1080.2399"
     inkscape:zoom="0.31999999"
     inkscape:pageshadow="2"
     inkscape:pageopacity="0"
     borderopacity="1.0"
     bordercolor="#666666"
     pagecolor="#ffffff"
     id="base" />
  <metadata
     id="metadata7">
    <rdf:RDF>
      <cc:Work
         rdf:about="">
        <dc:format>image/svg+xml</dc:format>
        <dc:type
           rdf:resource="http://purl.org/dc/dcmitype/StillImage" />
        <dc:title></dc:title>
      </cc:Work>
    </rdf:RDF>
  </metadata>
  <g
     transform="translate(564.40093,-150.10734)"
     id="layer1"
     inkscape:groupmode="layer"
     inkscape:label="Layer 1">
    <g
       transform="matrix(0.69388922,0,0,0.69388922,-136.81919,490.49676)"
       id="g4575">
      <g
         transform="translate(4.2221259,-185.77354)"
         id="g4695">
        <path
           sodipodi:nodetypes="cscscsc"
           inkscape:connector-curvature="0"
           id="path4155"
           d="m 58.14448,298.77576 c 0,0 330.6499,160.8571 435.1806,88.4297 226.22464,-156.7467 272.76708,-17.6362 272.76708,-17.6362 0,0 483.15734,363.94527 -24.96607,363.80295 -416.33811,-0.11661 -7.38796,-368.61895 -7.38796,-368.61895 0,0 171.7819,-69.3678 272.79697,-42.72 284.13,74.9536 438.2015,-86.2343 438.2015,-86.2343"
           style="fill:none;fill-rule:evenodd;stroke:#000000;stroke-width:50px;stroke-linecap:butt;stroke-linejoin:miter;stroke-opacity:1" />
        <g
           transform="rotate(-180,763.07364,946.8075)"
           id="g4531">
          <rect
             style="fill:#000000;fill-opacity:1;fill-rule:evenodd"
             id="rect4162"
             width="531.58887"
             height="165.85414"
             x="2199.168"
             y="510.099"
             transform="rotate(31.679404)"
             rx="20"
             ry="20" />
          <rect
             style="fill:#000000;fill-opacity:1;fill-rule:evenodd"
             id="rect4164"
             width="142.06175"
             height="116.95699"
             x="2074.9807"
             y="531.60822"
             transform="rotate(31.679404)"
             inkscape:transform-center-x="14.363107"
             inkscape:transform-center-y="-44.19426"
             ry="10"
             rx="10" />
          <path
             style="fill:#000000;fill-opacity:1;fill-rule:evenodd"
             id="path4170"
             sodipodi:type="arc"
             sodipodi:cx="-600.5166"
             sodipodi:cy="2722.407"
             sodipodi:rx="59.313419"
             sodipodi:ry="43.771511"
             sodipodi:start="0"
             sodipodi:end="3.4545961"
             d="m -541.20318,2722.407 a 59.313419,43.771511 0 0 1 -35.16761,39.9804 59.313419,43.771511 0 0 1 -63.80026,-7.4293 59.313419,43.771511 0 0 1 -16.77711,-46.0291 l 56.43156,13.478 z"
             transform="rotate(-58.474323)"
             inkscape:transform-center-x="-29.637066"
             inkscape:transform-center-y="30.4334" />
        </g>
        <g
           transform="rotate(-180,763.07363,946.80755)"
           id="g4536">
          <rect
             style="fill:#000000;fill-opacity:1;fill-rule:evenodd"
             id="rect4172"
             width="139.08499"
             height="117.82298"
             x="-827.99139"
             y="1437.7974"
             rx="10"
             ry="10"
             transform="rotate(-28.577116)"
             inkscape:transform-center-x="1.1846086"
             inkscape:transform-center-y="4.4951998" />
          <rect
             style="fill:#000000;fill-opacity:1;fill-rule:evenodd"
             id="rect4174"
             width="568.41205"
             height="169.26065"
             x="-1374.1239"
             y="1405.1584"
             rx="20"
             ry="20"
             transform="rotate(-28.820302)" />
          <path
             style="fill:#000000;fill-opacity:1;fill-rule:evenodd"
             id="path4176"
             transform="rotate(53.754228)"
             sodipodi:type="arc"
             sodipodi:cx="1301.0944"
             sodipodi:cy="1538.8513"
             sodipodi:rx="59.047272"
             sodipodi:ry="56.142303"
             sodipodi:start="0"
             sodipodi:end="3.2317386"
             sodipodi:open="true"
             d="m 1360.1416,1538.8513 a 59.047272,56.142303 0 0 1 -31.0733,49.4421 59.047272,56.142303 0 0 1 -60.5156,-2.5952 59.047272,56.142303 0 0 1 -26.2659,-51.901" />
        </g>
      </g>
    </g>
    <g
       transform="matrix(0.86129995,0,0,0.86129995,-261.63619,311.45677)"
       id="g4564">
      <circle
         style="fill:#000000;fill-opacity:1;fill-rule:evenodd;stroke:none;stroke-width:0.9375;stroke-linecap:butt;stroke-miterlimit:4;stroke-dasharray:none;stroke-opacity:1"
         id="path4558"
         cx="763.07361"
         cy="1226.9655"
         r="700" />
      <circle
         style="stroke:#ffffff;stroke-width:50;stroke-opacity:1"
         id="path4560"
         cx="759.35272"
         cy="1218.679"
         r="600" />
    </g>
    <g
       style="font-style:normal;font-variant:normal;font-weight:normal;font-stretch:normal;font-size:40px;line-height:25px;font-family:Verdana;-inkscape-font-specification:Verdana;letter-spacing:0px;word-spacing:0px;fill:#000000;fill-opacity:1;stroke:none;stroke-width:1px;stroke-linecap:butt;stroke-linejoin:miter;stroke-opacity:1"
       id="flowRoot4577"
       transform="matrix(0.8074687,0,0,0.8074687,-520.85118,781.276)"
       aria-label="1">
      <path
         id="path848"
         style="font-weight:bold;font-size:1083.63px;fill:#ffffff"
         d="M 1397.9364,1121.9066 H 871.99491 V 984.33641 H 1038.1374 V 567.92195 H 871.99491 V 439.34671 q 38.09637,0 73.01804,-4.23293 34.92167,-4.76204 58.20275,-15.87348 27.5141,-13.22791 41.2711,-34.39256 13.757,-21.16465 15.8735,-52.91162 h 175.1375 v 652.40029 h 162.4386 z" />
    </g>
  </g>
</svg>
